<svg xmlns="http://www.w3.org/2000/svg" xmlns:xlink="http://www.w3.org/1999/xlink" contentStyleType="text/css" data-diagram-type="SEQUENCE" height="664px" preserveAspectRatio="none" style="width:1050px;height:664px;background:#FFFFFF;" version="1.1" viewBox="0 0 1050 664" width="1050px" zoomAndPan="magnify"><defs/><g><rect fill="none" height="75.3984" style="stroke:#000000;stroke-width:1.5;" width="402.5913" x="430.6006" y="301.2266"/><rect fill="none" height="117.5313" style="stroke:#000000;stroke-width:1.5;" width="402.5913" x="430.6006" y="390.625"/><g><title>User</title><rect fill="#000000" fill-opacity="0.00000" height="502.125" width="8" x="19.9551" y="81.2969"/><line style="stroke:#181818;stroke-width:0.5;stroke-dasharray:5.0,5.0;" x1="23" x2="23" y1="81.2969" y2="583.4219"/></g><g><title>CLI</title><rect fill="#000000" fill-opacity="0.00000" height="502.125" width="8" x="235.4956" y="81.2969"/><line style="stroke:#181818;stroke-width:0.5;stroke-dasharray:5.0,5.0;" x1="238.6436" x2="238.6436" y1="81.2969" y2="583.4219"/></g><g><title>fibcalc</title><rect fill="#000000" fill-opacity="0.00000" height="502.125" width="8" x="466.3848" y="81.2969"/><line style="stroke:#181818;stroke-width:0.5;stroke-dasharray:5.0,5.0;" x1="469.6006" x2="469.6006" y1="81.2969" y2="583.4219"/></g><g><title>fibonacci</title><rect fill="#000000" fill-opacity="0.00000" height="502.125" width="8" x="780.6885" y="81.2969"/><line style="stroke:#181818;stroke-width:0.5;stroke-dasharray:5.0,5.0;" x1="784.1851" x2="784.1851" y1="81.2969" y2="583.4219"/></g><g class="participant participant-head" data-participant="User"><text fill="#000000" font-family="sans-serif" font-size="14" lengthAdjust="spacing" textLength="31.9102" x="5" y="77.9951">User</text><ellipse cx="23.9551" cy="13.5" fill="#E2E2F0" rx="8" ry="8" style="stroke:#181818;stroke-width:0.5;"/><path d="M23.9551,21.5 L23.9551,48.5 M10.9551,29.5 L36.9551,29.5 M23.9551,48.5 L10.9551,63.5 M23.9551,48.5 L36.9551,63.5" fill="none" style="stroke:#181818;stroke-width:0.5;"/></g><g class="participant participant-tail" data-participant="User"><text fill="#000000" font-family="sans-serif" font-size="14" lengthAdjust="spacing" textLength="31.9102" x="5" y="595.417">User</text><ellipse cx="23.9551" cy="607.2188" fill="#E2E2F0" rx="8" ry="8" style="stroke:#181818;stroke-width:0.5;"/><path d="M23.9551,615.2188 L23.9551,642.2188 M10.9551,623.2188 L36.9551,623.2188 M23.9551,642.2188 L10.9551,657.2188 M23.9551,642.2188 L36.9551,657.2188" fill="none" style="stroke:#181818;stroke-width:0.5;"/></g><g class="participant participant-head" data-participant="CLI"><rect fill="#E2E2F0" height="30.2969" rx="2.5" ry="2.5" style="stroke:#181818;stroke-width:0.5;" width="35.7041" x="221.6436" y="50"/><text fill="#000000" font-family="sans-serif" font-size="14" lengthAdjust="spacing" textLength="21.7041" x="228.6436" y="69.9951">CLI</text></g><g class="participant participant-tail" data-participant="CLI"><rect fill="#E2E2F0" height="30.2969" rx="2.5" ry="2.5" style="stroke:#181818;stroke-width:0.5;" width="35.7041" x="221.6436" y="582.4219"/><text fill="#000000" font-family="sans-serif" font-size="14" lengthAdjust="spacing" textLength="21.7041" x="228.6436" y="602.417">CLI</text></g><g class="participant participant-head" data-participant="fibcalc"><rect fill="#E2E2F0" height="30.2969" rx="2.5" ry="2.5" style="stroke:#181818;stroke-width:0.5;" width="59.5684" x="440.6006" y="50"/><text fill="#000000" font-family="sans-serif" font-size="14" lengthAdjust="spacing" textLength="45.5684" x="447.6006" y="69.9951">fibcalc</text></g><g class="participant participant-tail" data-participant="fibcalc"><rect fill="#E2E2F0" height="30.2969" rx="2.5" ry="2.5" style="stroke:#181818;stroke-width:0.5;" width="59.5684" x="440.6006" y="582.4219"/><text fill="#000000" font-family="sans-serif" font-size="14" lengthAdjust="spacing" textLength="45.5684" x="447.6006" y="602.417">fibcalc</text></g><g class="participant participant-head" data-participant="fibonacci"><rect fill="#E2E2F0" height="30.2969" rx="2.5" ry="2.5" style="stroke:#181818;stroke-width:0.5;" width="77.0068" x="746.1851" y="50"/><text fill="#000000" font-family="sans-serif" font-size="14" lengthAdjust="spacing" textLength="63.0068" x="753.1851" y="69.9951">fibonacci</text></g><g class="participant participant-tail" data-participant="fibonacci"><rect fill="#E2E2F0" height="30.2969" rx="2.5" ry="2.5" style="stroke:#181818;stroke-width:0.5;" width="77.0068" x="746.1851" y="582.4219"/><text fill="#000000" font-family="sans-serif" font-size="14" lengthAdjust="spacing" textLength="63.0068" x="753.1851" y="602.417">fibonacci</text></g><g class="message" data-participant-1="User" data-participant-2="CLI"><polygon fill="#181818" points="227.4956,108.4297,237.4956,112.4297,227.4956,116.4297,231.4956,112.4297" style="stroke:#181818;stroke-width:1;"/><line style="stroke:#181818;stroke-width:1;" x1="23.9551" x2="233.4956" y1="112.4297" y2="112.4297"/><text fill="#000000" font-family="sans-serif" font-size="13" lengthAdjust="spacing" textLength="184.6216" x="30.9551" y="107.3638">Start fibcalc with arguments</text></g><g class="message" data-participant-1="CLI" data-participant-2="fibcalc"><polygon fill="#181818" points="458.3848,137.5625,468.3848,141.5625,458.3848,145.5625,462.3848,141.5625" style="stroke:#181818;stroke-width:1;"/><line style="stroke:#181818;stroke-width:1;" x1="239.4956" x2="464.3848" y1="141.5625" y2="141.5625"/><text fill="#000000" font-family="sans-serif" font-size="13" lengthAdjust="spacing" textLength="206.8892" x="246.4956" y="136.4966">Parse configuration and options</text></g><g class="message" data-participant-1="fibcalc" data-participant-2="fibonacci"><polygon fill="#181818" points="772.6885,181.8281,782.6885,185.8281,772.6885,189.8281,776.6885,185.8281" style="stroke:#181818;stroke-width:1;"/><line style="stroke:#181818;stroke-width:1;" x1="470.3848" x2="778.6885" y1="185.8281" y2="185.8281"/><text fill="#000000" font-family="sans-serif" font-size="13" lengthAdjust="spacing" textLength="210.7993" x="477.3848" y="165.6294">Select and initialize algorithm(s)</text><text fill="#000000" font-family="sans-serif" font-size="13" lengthAdjust="spacing" textLength="199.4941" x="477.3848" y="180.7622">(create Calculator via registry)</text></g><g class="message" data-participant-1="fibonacci" data-participant-2="fibonacci"><line style="stroke:#181818;stroke-width:1;" x1="784.6885" x2="826.6885" y1="214.9609" y2="214.9609"/><line style="stroke:#181818;stroke-width:1;" x1="826.6885" x2="826.6885" y1="214.9609" y2="227.9609"/><line style="stroke:#181818;stroke-width:1;" x1="785.6885" x2="826.6885" y1="227.9609" y2="227.9609"/><polygon fill="#181818" points="795.6885,223.9609,785.6885,227.9609,795.6885,231.9609,791.6885,227.9609" style="stroke:#181818;stroke-width:1;"/><text fill="#000000" font-family="sans-serif" font-size="13" lengthAdjust="spacing" textLength="252.2495" x="791.6885" y="209.895">Perform computation (Fast/Matrix/FFT)</text></g><g class="message" data-participant-1="fibonacci" data-participant-2="CLI"><polygon fill="#181818" points="250.4956,253.0938,240.4956,257.0938,250.4956,261.0938,246.4956,257.0938" style="stroke:#181818;stroke-width:1;"/><line style="stroke:#181818;stroke-width:1;" x1="244.4956" x2="783.6885" y1="257.0938" y2="257.0938"/><text fill="#000000" font-family="sans-serif" font-size="13" lengthAdjust="spacing" textLength="391.1807" x="256.4956" y="252.0278">Send progress updates (Producer to Consumer via Channel)</text></g><g class="message" data-participant-1="CLI" data-participant-2="User"><polygon fill="#181818" points="34.9551,282.2266,24.9551,286.2266,34.9551,290.2266,30.9551,286.2266" style="stroke:#181818;stroke-width:1;"/><line style="stroke:#181818;stroke-width:1;" x1="28.9551" x2="238.4956" y1="286.2266" y2="286.2266"/><text fill="#000000" font-family="sans-serif" font-size="13" lengthAdjust="spacing" textLength="191.5405" x="40.9551" y="281.1606">Display progress bar and info</text></g><path d="M430.6006,301.2266 L495.0435,301.2266 L495.0435,308.3594 L485.0435,318.3594 L430.6006,318.3594 L430.6006,301.2266" fill="#EEEEEE" style="stroke:#000000;stroke-width:1.5;"/><rect fill="none" height="75.3984" style="stroke:#000000;stroke-width:1.5;" width="402.5913" x="430.6006" y="301.2266"/><text fill="#000000" font-family="sans-serif" font-size="13" font-weight="bold" lengthAdjust="spacing" textLength="19.4429" x="445.6006" y="314.2935">alt</text><text fill="#000000" font-family="sans-serif" font-size="11" font-weight="bold" lengthAdjust="spacing" textLength="145.2505" x="510.0435" y="313.437">[Calibration requested]</text><g class="message" data-participant-1="fibcalc" data-participant-2="fibonacci"><polygon fill="#181818" points="772.6885,335.4922,782.6885,339.4922,772.6885,343.4922,776.6885,339.4922" style="stroke:#181818;stroke-width:1;"/><line style="stroke:#181818;stroke-width:1;" x1="470.3848" x2="778.6885" y1="339.4922" y2="339.4922"/><text fill="#000000" font-family="sans-serif" font-size="13" lengthAdjust="spacing" textLength="192.8672" x="477.3848" y="334.4263">Run calibration for thresholds</text></g><g class="message" data-participant-1="fibonacci" data-participant-2="fibcalc"><polygon fill="#181818" points="481.3848,364.625,471.3848,368.625,481.3848,372.625,477.3848,368.625" style="stroke:#181818;stroke-width:1;"/><line style="stroke:#181818;stroke-width:1;" x1="475.3848" x2="783.6885" y1="368.625" y2="368.625"/><text fill="#000000" font-family="sans-serif" font-size="13" lengthAdjust="spacing" textLength="162.8809" x="487.3848" y="363.5591">Return optimal threshold</text></g><path d="M430.6006,390.625 L495.0435,390.625 L495.0435,397.7578 L485.0435,407.7578 L430.6006,407.7578 L430.6006,390.625" fill="#EEEEEE" style="stroke:#000000;stroke-width:1.5;"/><rect fill="none" height="117.5313" style="stroke:#000000;stroke-width:1.5;" width="402.5913" x="430.6006" y="390.625"/><text fill="#000000" font-family="sans-serif" font-size="13" font-weight="bold" lengthAdjust="spacing" textLength="19.4429" x="445.6006" y="403.6919">alt</text><text fill="#000000" font-family="sans-serif" font-size="11" font-weight="bold" lengthAdjust="spacing" textLength="216.6807" x="510.0435" y="402.8354">[Multiple algorithms / Comparison]</text><g class="message" data-participant-1="fibcalc" data-participant-2="fibonacci"><polygon fill="#181818" points="772.6885,424.8906,782.6885,428.8906,772.6885,432.8906,776.6885,428.8906" style="stroke:#181818;stroke-width:1;"/><line style="stroke:#181818;stroke-width:1;" x1="470.3848" x2="778.6885" y1="428.8906" y2="428.8906"/><text fill="#000000" font-family="sans-serif" font-size="13" lengthAdjust="spacing" textLength="290.3037" x="477.3848" y="423.8247">Launch computation with several algorithms</text></g><g class="message" data-participant-1="fibonacci" data-participant-2="fibcalc"><polygon fill="#181818" points="481.3848,454.0234,471.3848,458.0234,481.3848,462.0234,477.3848,458.0234" style="stroke:#181818;stroke-width:1;"/><line style="stroke:#181818;stroke-width:1;" x1="475.3848" x2="783.6885" y1="458.0234" y2="458.0234"/><text fill="#000000" font-family="sans-serif" font-size="13" lengthAdjust="spacing" textLength="149.1382" x="487.3848" y="452.9575">Return multiple results</text></g><g class="message" data-participant-1="fibcalc" data-participant-2="fibcalc"><line style="stroke:#181818;stroke-width:1;" x1="470.3848" x2="512.3848" y1="487.1563" y2="487.1563"/><line style="stroke:#181818;stroke-width:1;" x1="512.3848" x2="512.3848" y1="487.1563" y2="500.1563"/><line style="stroke:#181818;stroke-width:1;" x1="471.3848" x2="512.3848" y1="500.1563" y2="500.1563"/><polygon fill="#181818" points="481.3848,496.1563,471.3848,500.1563,481.3848,504.1563,477.3848,500.1563" style="stroke:#181818;stroke-width:1;"/><text fill="#000000" font-family="sans-serif" font-size="13" lengthAdjust="spacing" textLength="191.4136" x="477.3848" y="482.0903">Validate and compare results</text></g><g class="message" data-participant-1="fibcalc" data-participant-2="CLI"><polygon fill="#181818" points="250.4956,532.2891,240.4956,536.2891,250.4956,540.2891,246.4956,536.2891" style="stroke:#181818;stroke-width:1;"/><line style="stroke:#181818;stroke-width:1;" x1="244.4956" x2="469.3848" y1="536.2891" y2="536.2891"/><text fill="#000000" font-family="sans-serif" font-size="13" lengthAdjust="spacing" textLength="196.7456" x="256.4956" y="531.2231">Send final result and statistics</text></g><g class="message" data-participant-1="CLI" data-participant-2="User"><polygon fill="#181818" points="34.9551,561.4219,24.9551,565.4219,34.9551,569.4219,30.9551,565.4219" style="stroke:#181818;stroke-width:1;"/><line style="stroke:#181818;stroke-width:1;" x1="28.9551" x2="238.4956" y1="565.4219" y2="565.4219"/><text fill="#000000" font-family="sans-serif" font-size="13" lengthAdjust="spacing" textLength="121.2529" x="40.9551" y="560.356">Display final result</text></g><!--SRC=[XP8nZzim38Lt_GgEoL1apz0bHO02Tq1mrtRgmiYqJK2MN9AwzlhhIzj9dJi4hGP3WFd8xpqAenM1hqeImlI53n_XyF1v3y-6Oj3oEMAAy9Ej1vIk3fHDWrTCXPU_UpYXA44ikUMk2XgN39WRAEDqrN1jisXAnXZPHr2YQ7CXPpR6nBy9C7L5VDomqUttl8b2Q0G7bzU44-mB8mXrh2Qls_2ttxlc9vAsoE1GmrXjGTeSKMttY2RyQtSyVdcdNdoJuunIEY5Lg6FZqnKs9obDZPwF5JYu9GzY8Jdqc3EbxJMJASGzV68T4xwkZSue5wDj2G6JJOxuVCbAw4SbDMe2-BcVrbFD46yqxWwiz-PzIOrUXM-oM9RpH5ObpxiOCAsQu4uNbCUQZCTqaxt2pcqE8mfhoV-WUi2QO_ycvVcjABsG-BIru_y9Xok60_fLxunTwhzv3DDUvaJZZBcAPbStgdMhBMSdMkfcgKx4QXpr_lPk1Ny0]--></g></svg>